<?xml version="1.0" encoding="UTF-8"?><svg xmlns="http://www.w3.org/2000/svg" xmlns:xlink="http://www.w3.org/1999/xlink" fill-opacity="1" color-rendering="auto" color-interpolation="auto" stroke="black" text-rendering="auto" stroke-linecap="square" width="840" stroke-miterlimit="10" stroke-opacity="1" shape-rendering="auto" fill="black" stroke-dasharray="none" font-weight="normal" stroke-width="1" height="289" font-family="'Dialog'" font-style="normal" stroke-linejoin="miter" font-size="12" stroke-dashoffset="0" image-rendering="auto">
  <!--Generated by ySVG-->
  <defs id="genericDefs"/>
  <g>
    <defs id="defs1">
      <clipPath clipPathUnits="userSpaceOnUse" id="clipPath1">
        <path d="M0 0 L840 0 L840 289 L0 289 L0 0 Z"/>
      </clipPath>
      <clipPath clipPathUnits="userSpaceOnUse" id="clipPath2">
        <path d="M62 227 L902 227 L902 516 L62 516 L62 227 Z"/>
      </clipPath>
      <clipPath clipPathUnits="userSpaceOnUse" id="clipPath3">
        <path d="M-516.8865 -116.3582 L319.7876 -41.6824 L294.0955 246.1734 L-542.5786 171.4975 L-516.8865 -116.3582 Z"/>
      </clipPath>
      <clipPath clipPathUnits="userSpaceOnUse" id="clipPath4">
        <path d="M-540.8177 -101.3151 L292.6255 -206.0648 L328.6643 80.6793 L-504.7788 185.429 L-540.8177 -101.3151 Z"/>
      </clipPath>
    </defs>
    <g fill="white" transform="translate(-62,-227)" stroke="white">
      <rect x="62" width="840" height="289" y="227" clip-path="url(#clipPath2)" stroke="none"/>
    </g>
    <g stroke-miterlimit="1.45" font-family="sans-serif" transform="matrix(1,0,0,1,-62,-227)" stroke-linecap="butt">
      <text x="133.5547" xml:space="preserve" y="289.1387" clip-path="url(#clipPath2)" stroke="none">Browser</text>
      <rect fill="none" x="77" width="162" height="184" y="272" clip-path="url(#clipPath2)"/>
    </g>
    <g fill="rgb(255,204,0)" transform="matrix(1,0,0,1,-62,-227)" stroke="rgb(255,204,0)">
      <rect x="108.5" width="101" height="134" y="300" clip-path="url(#clipPath2)" stroke="none"/>
    </g>
    <g stroke-miterlimit="1.45" font-family="sans-serif" transform="matrix(1,0,0,1,-62,-227)" stroke-linecap="butt">
      <text x="117.6094" xml:space="preserve" y="371.1543" clip-path="url(#clipPath2)" stroke="none">BubblesClient</text>
      <rect fill="none" x="108.5" width="101" height="134" y="300" clip-path="url(#clipPath2)"/>
      <text x="789.8193" xml:space="preserve" y="259.1387" clip-path="url(#clipPath2)" stroke="none">IDE</text>
      <rect fill="none" x="713" width="174" height="107" y="242" clip-path="url(#clipPath2)"/>
    </g>
    <g fill="rgb(255,204,0)" transform="matrix(1,0,0,1,-62,-227)" stroke="rgb(255,204,0)">
      <rect x="744.5" width="111" height="52" y="272" clip-path="url(#clipPath2)" stroke="none"/>
    </g>
    <g stroke-miterlimit="1.45" font-family="sans-serif" transform="matrix(1,0,0,1,-62,-227)" stroke-linecap="butt">
      <text x="764.9639" xml:space="preserve" y="302.1543" clip-path="url(#clipPath2)" stroke="none">CodeServer</text>
      <rect fill="none" x="744.5" width="111" height="52" y="272" clip-path="url(#clipPath2)"/>
      <text x="459.1426" xml:space="preserve" y="289.1387" clip-path="url(#clipPath2)" stroke="none">Proxy</text>
      <rect fill="none" x="395" width="162" height="184" y="272" clip-path="url(#clipPath2)"/>
    </g>
    <g fill="rgb(255,102,0)" transform="matrix(1,0,0,1,-62,-227)" stroke="rgb(255,102,0)">
      <rect x="424.5" width="101" height="43" y="301" clip-path="url(#clipPath2)" stroke="none"/>
    </g>
    <g stroke-miterlimit="1.45" font-family="sans-serif" transform="matrix(1,0,0,1,-62,-227)" stroke-linecap="butt">
      <text x="448.2871" xml:space="preserve" y="326.6543" clip-path="url(#clipPath2)" stroke="none">Rule: foo</text>
      <rect fill="none" x="424.5" width="101" height="43" y="301" clip-path="url(#clipPath2)"/>
    </g>
    <g fill="rgb(255,102,0)" transform="matrix(1,0,0,1,-62,-227)" stroke="rgb(255,102,0)">
      <rect x="424.5" width="101" height="43" y="389" clip-path="url(#clipPath2)" stroke="none"/>
    </g>
    <g stroke-miterlimit="1.45" font-family="sans-serif" transform="matrix(1,0,0,1,-62,-227)" stroke-linecap="butt">
      <text x="447.7891" xml:space="preserve" y="414.6543" clip-path="url(#clipPath2)" stroke="none">Rule: bar</text>
      <rect fill="none" x="424.5" width="101" height="43" y="389" clip-path="url(#clipPath2)"/>
      <text x="763.8477" xml:space="preserve" y="411.1387" clip-path="url(#clipPath2)" stroke="none">Apache/PHP</text>
      <rect fill="none" x="713" width="174" height="107" y="394" clip-path="url(#clipPath2)"/>
    </g>
    <g fill="rgb(255,204,0)" transform="matrix(1,0,0,1,-62,-227)" stroke="rgb(255,204,0)">
      <rect x="744.5" width="111" height="52" y="419" clip-path="url(#clipPath2)" stroke="none"/>
    </g>
    <g stroke-miterlimit="1.45" font-family="sans-serif" transform="matrix(1,0,0,1,-62,-227)" stroke-linecap="butt">
      <text x="756.3037" xml:space="preserve" y="449.1543" clip-path="url(#clipPath2)" stroke="none">BubblesServer</text>
      <rect fill="none" x="744.5" width="111" height="52" y="419" clip-path="url(#clipPath2)"/>
      <path fill="none" d="M209.5063 322.5 L416.5 322.5" clip-path="url(#clipPath2)"/>
      <path d="M424.5 322.5 L412.5 317.5 L415.5 322.5 L412.5 327.5 Z" clip-path="url(#clipPath2)" stroke="none"/>
      <text x="272.7764" xml:space="preserve" y="312.6855" clip-path="url(#clipPath2)" stroke="none">localhost:7777</text>
      <text x="315.0928" xml:space="preserve" y="326.6543" clip-path="url(#clipPath2)" stroke="none"> </text>
      <text x="303.5029" xml:space="preserve" y="340.623" clip-path="url(#clipPath2)" stroke="none">/foo/</text>
      <path fill="none" d="M525.5 322.5 L736.5317 303.6648" clip-path="url(#clipPath2)"/>
      <path d="M744.5 302.9536 L732.103 299.0402 L735.5356 303.7537 L732.992 309.0006 Z" clip-path="url(#clipPath2)" stroke="none"/>
    </g>
    <g stroke-miterlimit="1.45" font-family="sans-serif" transform="matrix(0.996,-0.0889,0.0889,0.996,525.1842,69.9464)" stroke-linecap="butt">
      <text x="2" xml:space="preserve" y="13.1387" clip-path="url(#clipPath3)" stroke="none">localhost:8888</text>
    </g>
    <g stroke-linecap="butt" transform="matrix(1,0,0,1,-62,-227)" stroke-miterlimit="1.45">
      <path fill="none" d="M209.4622 410.5 L416.5 410.5" clip-path="url(#clipPath2)"/>
      <path d="M424.5 410.5 L412.5 405.5 L415.5 410.5 L412.5 415.5 Z" clip-path="url(#clipPath2)" stroke="none"/>
      <text x="272.7764" xml:space="preserve" y="400.6855" font-family="sans-serif" clip-path="url(#clipPath2)" stroke="none">localhost:7777</text>
      <text x="315.0928" xml:space="preserve" y="414.6543" font-family="sans-serif" clip-path="url(#clipPath2)" stroke="none"> </text>
      <text x="303.0049" xml:space="preserve" y="428.623" font-family="sans-serif" clip-path="url(#clipPath2)" stroke="none">/bar/</text>
      <path fill="none" d="M525.5 410.5 L736.5624 437.027" clip-path="url(#clipPath2)"/>
      <path d="M744.5 438.0246 L733.2172 431.5672 L735.5703 436.9023 L731.9702 441.4891 Z" clip-path="url(#clipPath2)" stroke="none"/>
    </g>
    <g stroke-miterlimit="1.45" font-family="sans-serif" transform="matrix(0.9922,0.1247,-0.1247,0.9922,523.962,167.9653)" stroke-linecap="butt">
      <text x="2" xml:space="preserve" y="13.1387" clip-path="url(#clipPath4)" stroke="none">example.com:80</text>
      <text x="50.4014" xml:space="preserve" y="27.1074" clip-path="url(#clipPath4)" stroke="none"> </text>
      <text x="24.5527" xml:space="preserve" y="41.0762" clip-path="url(#clipPath4)" stroke="none">/bubbles/</text>
    </g>
  </g>
</svg>
